<svg height="490pt" viewBox="-64 0 490 490.66667" width="490pt" xmlns="http://www.w3.org/2000/svg"><path d="m91.007812 298.667969c-8.832031 0-16-7.167969-16-16v-213.335938c0-26.453125 21.527344-48 48-48 26.476563 0 48 21.546875 48 48v192c0 8.832031-7.167968 16-16 16-8.832031 0-16-7.167969-16-16v-192c0-8.808593-7.167968-16-16-16-8.832031 0-16 7.191407-16 16v213.335938c0 8.832031-7.167968 16-16 16zm0 0"/><path d="m219.007812 277.332031c-8.832031 0-16-7.167969-16-16v-213.332031c0-8.8125-7.167968-16-16-16-8.832031 0-16 7.1875-16 16v37.332031c0 8.832031-7.167968 16-16 16-8.832031 0-16-7.167969-16-16v-37.332031c0-26.453125 21.527344-48 48-48 26.476563 0 48 21.546875 48 48v213.332031c0 8.832031-7.167968 16-16 16zm0 0"/><path d="m283.007812 277.332031c-8.832031 0-16-7.167969-16-16v-181.332031c0-8.8125-7.167968-16-16-16-8.832031 0-16 7.1875-16 16v26.667969c0 8.832031-7.167968 16-16 16-8.832031 0-16-7.167969-16-16v-26.667969c0-26.453125 21.527344-48 48-48 26.476563 0 48 21.546875 48 48v181.332031c0 8.832031-7.167968 16-16 16zm0 0"/><path d="m261.675781 490.667969h-118.125c-25.746093 0-55.058593-14.828125-80.425781-40.707031-41.152344-42.003907-64.019531-103.230469-62.742188-168.019532.8125-40.769531 34.328126-73.941406 74.730469-73.941406h15.894531c8.832032 0 16 7.167969 16 16s-7.167968 16-16 16h-15.871093c-23.507813 0-42.261719 18.6875-42.730469 42.558594-1.601562 79.894531 36.949219 128.023437 53.589844 145.003906 19.09375 19.476562 40.617187 31.105469 57.554687 31.105469h118.125c38.230469 0 69.332031-31.105469 69.332031-69.335938v-277.332031c0-8.8125-7.167968-16-16-16-8.832031 0-16 7.1875-16 16 0 8.832031-7.167968 16-16 16-8.832031 0-16-7.167969-16-16 0-26.453125 21.527344-48 48-48 26.476563 0 48 21.546875 48 48v277.332031c0 55.875-45.460937 101.335938-101.332031 101.335938zm0 0"/></svg>